<svg xmlns="http://www.w3.org/2000/svg" height="1000" width="1000" version="1.1" xmlns:xlink="http://www.w3.org/1999/xlink" xmlns:svgjs="http://svgjs.com/svgjs"><rect fill="#f3ebe9" width="1000" height="1000"></rect><g><path d="M612.42 392.15H629.34C668.6 392.15 700.42 360.33 700.42 321.07 700.42 281.81 668.6 250 629.34 250H612.99L612.42 392.15Z" fill="#3c2c5b" opacity="1" stroke-width="4" stroke="none"></path><path d="M612.42 392.15C651.68 392.15 683.5 360.33 683.5 321.07 683.5 281.82 651.68 250 612.42 250 573.17 250 541.35 281.82 541.35 321.07 541.35 360.33 573.17 392.15 612.42 392.15Z" fill="#3c2c5b" opacity="1" stroke-width="4" stroke="none"></path><path d="M612.42 392.15H629.34C655.52 392.15 679.55 377.76 691.96 354.75H614.9L612.42 392.15Z" fill="#0b0b0b" opacity="0.3" stroke-width="4" stroke="none"></path><path d="M595.5 392.15H612.42C651.68 392.15 683.5 360.33 683.5 321.07 683.5 281.81 651.68 250 612.42 250H596.06L595.5 392.15Z" fill="#ffc930" opacity="1" stroke-width="4" stroke="none"></path><path d="M595.5 392.15H612.42C647.34 392.15 677.06 366.82 682.59 332.36H599.11L595.5 392.15Z" fill="#000000" opacity="0.3" stroke-width="4" stroke="none"></path><path d="M595.5 392.15C634.75 392.15 666.57 360.33 666.57 321.07 666.57 281.82 634.75 250 595.5 250 556.24 250 524.42 281.82 524.42 321.07 524.42 360.33 556.24 392.15 595.5 392.15Z" fill="#ffc930" opacity="1" stroke-width="4" stroke="none"></path><path d="M595.5 392.15C634.76 392.15 666.57 360.33 666.57 321.07 666.57 281.81 634.76 250 595.5 250" stroke="#000000" stroke-width="4" stroke-linecap="round" stroke-linejoin="round" opacity="1" fill="none"></path><path d="M595.5 357.18C615.44 357.18 631.6 341.01 631.6 321.07 631.6 301.13 615.44 284.97 595.5 284.97 575.56 284.97 559.4 301.13 559.4 321.07 559.4 341.01 575.56 357.18 595.5 357.18Z" fill="#61ccff" opacity="1" stroke-width="4" stroke="none"></path><path d="M607.85 723.49C607.01 717.23 606.22 710.06 605.76 703.63 605.48 699.85 605.31 695.96 605.2 692.13V692.01H654.84C654.84 692.01 653.54 699.74 653.2 703.63 653.2 704.08 653.15 704.54 653.15 704.99 653.15 705.95 653.15 706.85 653.26 707.81V707.92H641.36C638.43 707.92 636 710.29 636 713.28 636 713.5 636 713.73 636.06 713.96L637.18 722.81 607.85 723.49Z" fill="#ffc930" opacity="1" stroke-width="4" stroke="none"></path><path d="M605.2 692.18C605.09 689.31 605.09 686.43 605.09 683.61V682.76C605.2 665.33 608.92 649.42 611.91 639.16 611.91 639.1 611.97 639.05 612.03 639.05H665.73V639.16C663.87 651.06 661.1 663.24 658.68 674.02 658 677.06 657.32 680 656.7 682.76 655.86 686.54 654.67 692.63 654.67 692.63L605.2 692.18Z" fill="#f9b298" opacity="1" stroke-width="4" stroke="none"></path><path d="M543.04 527.08C539.15 527.08 535.03 524.2 531.76 519.24 528.32 513.76 526.51 507.45 526.57 501.02 526.57 488.89 526.91 485.33 531.14 441.62L531.64 436.15C534.52 406.08 538.87 373.82 541.18 356.5 542.25 348.54 542.93 343.3 542.93 342.57 542.81 340.31 542.76 338.39 542.7 336.7 542.59 333.82 542.53 331.74 542.36 329.87 542.14 327.39 541.91 325.08 541.74 322.99 540.61 310.75 540.11 305.17 541.63 303.42 542.02 303.02 542.53 302.8 543.1 302.8 543.26 302.8 543.38 302.8 543.55 302.85 545.97 303.14 548.4 306.97 549.75 309.45 550.49 304.38 554.26 303.53 554.32 303.53 558.66 303.53 574.63 308.95 577 310.86 580.61 313.85 580.27 333.26 576.49 338.62 576.71 340.25 581.79 384.65 569.72 442.41 568.03 450.47 566.62 458.15 565.21 465.59 562.22 481.5 559.45 496.5 554.49 514.05 552.06 522.45 548 527.08 543.04 527.08Z" fill="#f9b298" opacity="1" stroke-width="4" stroke="none"></path><path d="M610.62 739.56C609.49 734.26 608.53 728.56 607.74 722.75V722.64H636.96L635.83 714.07C635.44 711.02 637.58 708.2 640.63 707.81 640.85 707.75 641.08 707.75 641.36 707.75L653.2 707.13 653.26 707.86C654.28 718.24 662.17 724.28 669.73 730.09 673.74 733.19 677.18 735.67 679.66 739L680.56 740.3C680.62 740.35 680.56 740.47 680.51 740.47L610.62 739.56Z" fill="#ff4f32" opacity="1" stroke-width="4" stroke="none"></path><path d="M605.6 569.49H605.71C611.46 570.12 617.61 570.85 622.57 571.53 622.69 571.53 622.74 571.64 622.69 571.69L608.64 629.17C607.12 629.34 604.58 629.57 602.72 629.74 598.77 630.13 590.48 630.75 590.48 630.75L605.6 569.49Z" fill="#f9b298" opacity="1" stroke-width="4" stroke="none"></path><path d="M556.13 632.16C535.71 632.16 518.9 630.58 506.09 627.48L505.98 627.43 532.89 566.5H532.94C532.94 566.5 535.03 566.45 538.53 566.45 549.13 566.45 575.42 566.39 601.48 568.87 602.38 568.99 606.27 569.49 607.18 569.61 607.29 569.61 607.34 569.72 607.29 569.83L591.21 630.75 590.59 630.81C578.52 631.71 566.9 632.16 556.13 632.16Z" fill="#3c2c5b" opacity="1" stroke-width="4" stroke="none"></path><path d="M555.9 632.16C535.59 632.16 518.84 630.58 506.09 627.48L505.92 627.43 535.65 581H535.71C536.61 580.89 537.51 580.83 538.41 580.83 541.8 580.83 548.06 581.45 551.73 585.63 554.21 588.45 555.11 592.4 554.43 597.47 551.67 618.63 555.96 631.88 556.01 631.99L556.07 632.16H555.9Z" fill="#0b0b0b" opacity="0.3" stroke-width="4" stroke="none"></path><path d="M566.73 507.16C562.33 507.16 558.1 505.3 555.17 502.03 543.43 489.73 532.15 465.25 532.04 465.03L531.59 461.92C531.59 461.53 530.97 423.06 532.38 416.18 534.47 405.8 542.14 399.37 552.85 398.92 553.64 398.86 554.49 398.86 555.28 398.86 570.51 398.86 580.49 405.01 583.6 411.16 585.68 415.56 586.53 420.8 587.26 428.36 587.71 428.53 590.25 429.72 591.49 430.96 591.94 431.35 592.23 431.86 592.23 432.48 592.28 434.62 588.9 437.5 588.45 437.84 589.35 448.56 589.46 456.4 583.26 460.12 581.28 461.3 578.69 461.92 575.53 461.92 572.37 461.87 569.27 461.42 566.28 460.51 566.11 463.05 566.34 464.35 566.96 468.75L567.07 469.43C567.35 471.18 568.2 474.22 569.27 478.06 571.3 485.28 574.12 495.09 575.36 505.02V505.08L575.3 505.13C572.6 506.37 569.72 507.11 566.73 507.16Z" fill="#f9b298" opacity="1" stroke-width="4" stroke="none"></path><path d="M566.79 469.43C565.21 467.06 563.52 464.8 561.71 462.66 560.53 461.19 559.45 459.84 558.72 458.77 558.21 458.09 557.99 457.24 558.16 456.4L558.21 456.23 558.33 456.34C560.81 457.98 563.46 459.39 566.22 460.46 566.05 463 566.28 464.29 566.9 468.69L567.01 469.37 566.79 469.43Z" fill="#000000" opacity="0.3" stroke-width="4" stroke="none"></path><path d="M531.53 461.36C531.53 461.02 529.22 429.88 529.95 416.4 530.52 405.86 542.25 398.8 552.85 398.35 553.64 398.3 554.49 398.3 555.28 398.3 570.51 398.3 580.49 404.44 583.6 410.59 584.16 411.78 584.33 412.68 584.72 413.92L584.84 414.43C584.78 414.49 583.65 415.5 579.82 415.5 577.96 415.5 576.09 415.28 576.12 415.4 575.19 418.43 575.02 421.09 573.78 422.72 572.77 424.07 570.96 424.81 568.48 424.81 567.41 424.81 566.34 424.7 566.39 425.03 565.77 425.6 568.03 430.96 563.35 433.83 563.35 433.83 557.2 429.32 551.67 429.32 549.24 429.26 546.93 430.34 545.41 432.25 539.32 439.98 550.94 451.15 551.05 451.26L551.11 451.32C551.11 451.32 532.27 464.46 532.15 464.46H532.04L531.53 461.36Z" fill="#000000" opacity="1" stroke-width="4" stroke="none"></path><path d="M566.28 460.51C564.19 459.5 562.27 458.54 559.68 457.19" stroke="#000000" stroke-width="4" stroke-linecap="round" stroke-linejoin="round" opacity="1" fill="none"></path><path d="M582.02 443.2C580.55 444.16 578.18 443.03 577.5 441.17" stroke="#000000" stroke-width="4" stroke-linecap="round" stroke-linejoin="round" opacity="1" fill="none"></path><path d="M556.58 442.35L552.63 440.66" stroke="#000000" stroke-width="4" stroke-linecap="round" stroke-linejoin="round" opacity="1" fill="none"></path><path d="M657.89 719.48L649.99 723.71" stroke="#000000" stroke-width="4" stroke-linecap="round" stroke-linejoin="round" opacity="1" fill="none"></path><path d="M662.36 724.2L656.19 730.82" stroke="#000000" stroke-width="4" stroke-linecap="round" stroke-linejoin="round" opacity="1" fill="none"></path><path d="M580.49 430.96C581.31 430.96 581.96 430.3 581.96 429.49 581.96 428.68 581.31 428.02 580.49 428.02 579.69 428.02 579.03 428.68 579.03 429.49 579.03 430.3 579.69 430.96 580.49 430.96Z" fill="#000000" opacity="1" stroke-width="4" stroke="none"></path><path d="M520.19 534.24C509.76 534.24 503.84 529.5 502.59 520.14 498.7 491.14 496.95 424.36 496.95 423.68 496.45 418.04 495.09 405.63 493.74 398.97 489.17 377.43 481.05 349.39 478 338.84 477.44 336.98 477.1 335.74 476.99 335.29 475.97 331.51 475.07 328.8 474.33 326.66 473.43 323.89 472.75 321.86 472.42 319.33V319.21L501.75 309.06C501.81 308.21 502.09 301.56 505.47 301.56 505.81 301.56 506.09 301.61 506.43 301.73 507.33 302.01 508.18 303.14 509.03 305.05 510.72 308.78 512.3 315.66 513.37 323.39 514.33 330.44 514.5 336.3 513.82 337.94 514.33 339.41 528.03 378.5 534.13 419.73 535.99 432.14 540.5 457.81 542.25 467.45 542.64 469.6 542.87 470.89 542.87 471.01L555.84 523.52 555.79 523.58C555.56 523.75 535.54 534.24 520.19 534.24Z" fill="#f9b298" opacity="1" stroke-width="4" stroke="none"></path><path d="M452.79 613.83L452.84 613.72C454.54 611.18 456.34 608.42 458.15 605.48 474 579.99 489.9 565.72 508.12 560.64 507.9 559.12 502.59 520.02 502.31 517.88 502.31 517.82 502.37 517.82 502.37 517.82 505.64 518.45 509.08 518.78 512.47 518.84 521.66 518.84 528.94 515.96 534.07 510.27 544.34 498.87 543.83 479.41 542.98 471.4 542.98 471.4 545.18 480.26 553.87 490.69 562.22 500.68 574.8 501.18 574.8 501.18 575.36 503.78 575.59 506.2 575.64 508.86 575.76 532.72 568.65 559.85 555.67 585.23 541.91 612.08 522.96 634.81 500.79 650.95L500.73 651 452.79 613.83Z" fill="#3c2c5b" opacity="1" stroke-width="4" stroke="none"></path><path d="M508.12 560.69C508.12 560.64 505.36 540.16 505.36 540.16 505.42 540.22 509.42 547.27 519.97 551.16 529.44 554.94 528.49 558.83 528.49 558.83H528.37C516.81 558.33 508.12 560.69 508.12 560.69Z" fill="#0b0b0b" opacity="0.3" stroke-width="4" stroke="none"></path><path d="M523.97 630.47C536.61 616.99 547.27 601.76 555.62 585.35" stroke="#0b0b0b" stroke-width="4" stroke-linecap="round" stroke-linejoin="round" opacity="1" fill="none"></path><path d="M441.28 628.95L441.39 628.84C444.78 625.11 448.5 620.15 452.84 613.72L453.35 612.99 500.9 650.95 500.79 651.06C495.6 655.18 483.92 663.24 483.92 663.24L441.28 628.95Z" fill="#f9b298" opacity="1" stroke-width="4" stroke="none"></path><path d="M348.88 659.52L349 659.47C352.83 657.72 356.84 656.08 360.79 654.61 382.22 646.44 400.21 643.33 413.36 641.08 416.01 640.62 418.49 640.17 420.75 639.78H420.86L428.93 685.98C428.93 686.15 428.87 686.26 428.7 686.32 421.88 688.12 414.43 689.87 407.49 691.56 403.15 692.63 398.63 693.7 394.35 694.78 385.44 696.98 379.12 698.73 373.7 700.36H373.65L348.88 659.52Z" fill="#f9b298" opacity="1" stroke-width="4" stroke="none"></path><path d="M420.41 640.06C420.41 639.95 420.46 639.84 420.58 639.84 425.71 638.82 429.15 637.92 431.3 636.96 434.57 635.38 437.78 632.84 441.34 628.95L441.39 628.89 485.28 662C485.39 662.12 485.39 662.29 485.28 662.34 482.91 664.03 463.39 677.69 450.59 680.05 445.34 681.92 430.22 685.98 428.14 686.54 428.02 686.6 427.91 686.48 427.85 686.37L420.41 640.06Z" fill="#ff4f32" opacity="1" stroke-width="4" stroke="none"></path><path d="M352.49 689.64C351.7 688.52 350.46 687.84 349.05 687.84 347.87 687.84 346.8 688.35 346.01 689.19L339.41 696.36 320.74 675.43C329.31 669.39 340.03 663.36 349.67 659.18L373.93 700.3 373.82 700.36C373.03 700.59 372.29 700.81 371.5 701.09 368.12 702.17 365.19 703.24 362.7 704.25L352.49 689.64Z" fill="#ffc930" opacity="1" stroke-width="4" stroke="none"></path><path d="M611.8 639.55C613.55 633.63 615.19 629.34 615.52 628.44 614.79 628.55 612.03 628.89 607.85 629.29H607.68L621.95 571.47H622.07C642.71 574.63 655.52 579.14 660.14 584.84 668.21 594.88 669.96 612.65 665.73 639.61L611.8 639.55Z" fill="#ff4f32" opacity="1" stroke-width="4" stroke="none"></path><path d="M607.01 660.71C608.19 653.43 609.83 646.27 611.91 639.21 613.89 632.5 615.47 628.55 615.52 628.5 615.52 628.5 631.66 625.56 636.68 624.44H636.79V624.55C637.41 628.33 629.46 636.85 622.63 643.28 612.03 653.32 607.23 660.65 607.18 660.71H607.01Z" fill="#000000" opacity="0.3" stroke-width="4" stroke="none"></path><path d="M553.81 319.1C557.25 322.54 559.96 326.66 561.65 331.23" stroke="#000000" stroke-width="4" stroke-linecap="round" stroke-linejoin="round" opacity="1" fill="none"></path><path d="M508.12 560.64L518.28 559.06" stroke="#0b0b0b" stroke-width="4" stroke-linecap="round" stroke-linejoin="round" opacity="1" fill="none"></path><path d="M615.52 628.44L630.47 625.68" stroke="#000000" stroke-width="4" stroke-linecap="round" stroke-linejoin="round" opacity="1" fill="none"></path><path d="M613.1 750C613.1 750 611.86 745.66 610.5 739.11L680 739.51 680.05 739.56C682.42 742.84 683.27 746.28 682.59 749.94L613.1 750Z" fill="#61ccff" opacity="1" stroke-width="4" stroke="none"></path><path d="M306.52 687.27L306.58 687.22C311.2 682.71 316.22 678.53 321.58 674.81L321.69 674.75 339.46 696.02 345.95 689.02C346.8 688.12 347.92 687.61 349.17 687.61 350.63 687.61 351.93 688.35 352.78 689.53L362.87 704.14 362.76 704.2C357.23 706.45 353.96 708.6 352.83 710.74 349.62 716.66 350.58 724.67 351.31 731.05 351.65 733.98 351.99 736.57 351.87 738.55 351.82 739.4 351.7 740.19 351.53 740.97L351.48 741.26C351.37 741.71 350.8 741.82 350.52 741.43L306.52 687.27Z" fill="#ff4f32" opacity="1" stroke-width="4" stroke="none"></path><path d="M299.58 695C299.58 695 299.58 694.95 299.58 694.89 299.86 694.55 301.73 692.18 306.58 687.22L306.69 687.11 351.48 740.97V741.03C350.24 747.07 346.01 749.55 345.39 749.94 345.33 750 345.27 749.94 345.22 749.94L299.58 695Z" fill="#61ccff" opacity="1" stroke-width="4" stroke="none"></path><path d="M353.51 709.72L346.18 704.14" stroke="#000000" stroke-width="4" stroke-linecap="round" stroke-linejoin="round" opacity="1" fill="none"></path><path d="M351.08 715.7L342.9 713.67" stroke="#000000" stroke-width="4" stroke-linecap="round" stroke-linejoin="round" opacity="1" fill="none"></path><path d="M594.37 326.71C594.03 326.71 593.69 326.66 593.36 326.6 592.96 326.55 554.49 319.66 498.76 319.66 463.84 319.78 428.98 322.09 394.35 326.66 391.25 327.11 388.43 324.97 387.97 321.86 387.52 318.76 389.67 315.94 392.71 315.49 427.85 310.86 463.28 308.5 498.7 308.38 555.51 308.38 593.75 315.21 595.33 315.55 598.38 316.11 600.41 319.04 599.84 322.09 599.45 324.74 597.08 326.71 594.37 326.71Z" fill="#f5e6bc" opacity="1" stroke-width="4" stroke="none"></path><path d="M549.75 309.45C549.75 309.45 550.94 300.77 559.34 304.04 560.19 303.14 561.37 302.57 562.61 302.57 563.91 302.63 565.15 303.14 566.11 304.04 566.84 303.64 567.63 303.42 568.48 303.42 570.06 303.42 571.58 304.21 572.88 305.73 573.39 305.56 573.89 305.45 574.4 305.45 576.88 305.45 578.8 307.59 579.14 308.04 581.28 310.69 584.05 317.92 583.09 319.44 582.58 320.28 581.68 320.74 580.72 320.68 579.7 320.62 578.75 320.34 577.84 319.89 577.17 321.41 576.09 322.15 574.74 322.15 573.61 322.09 572.54 321.75 571.64 321.13 570.79 321.86 569.61 322.31 568.37 322.37 565.72 322.37 564.02 319.89 563.63 319.33 562.95 319.83 562.11 320.06 561.26 320.06 560.81 320.06 560.36 320 559.91 319.89 557.14 319.16 554.15 316.11 554.55 309.91" fill="#f9b298" opacity="1" stroke-width="4" stroke="none"></path><path d="M559.4 304.15C563.91 308.66 563.68 319.1 563.68 319.1" stroke="#000000" stroke-width="4" stroke-linecap="round" stroke-linejoin="round" opacity="1" fill="none"></path><path d="M566.17 304.15C568.99 307.54 571.64 314.08 571.75 320.96" stroke="#000000" stroke-width="4" stroke-linecap="round" stroke-linejoin="round" opacity="1" fill="none"></path><path d="M572.94 305.84C577.45 313.74 577.9 319.72 577.9 319.72" stroke="#000000" stroke-width="4" stroke-linecap="round" stroke-linejoin="round" opacity="1" fill="none"></path><path d="M484.43 326.83C482.23 326.83 479.75 324.63 476.99 320.23 473.77 320.28 472.92 320.28 472.75 320.28H472.64L472.59 320.23C472.53 320.06 472.53 320.06 472.53 320 471.8 315.66 472.08 312.78 473.6 310.3 474.79 308.33 476.65 307.48 479.75 307.48H479.86C480.65 305.73 482.4 304.66 484.32 304.72 485.45 304.77 486.63 305 487.65 305.45 488.83 304.32 490.35 303.64 491.99 303.59 493.12 303.59 494.19 303.93 495.15 304.6 496.05 303.98 497.18 303.64 498.25 303.64 502.76 303.64 505.87 309.85 505.87 309.91 505.98 310.13 508.86 315.94 507.11 319.04 506.54 320.12 505.47 320.74 503.95 320.9 503.89 321.53 503.27 324.97 500.23 324.97 499.1 324.97 497.74 324.46 496.22 323.5 495.94 324.06 494.47 326.49 492.05 326.49 490.69 326.49 489.34 325.7 487.93 324.18 487.65 324.74 486.52 326.83 484.43 326.83Z" fill="#f9b298" opacity="1" stroke-width="4" stroke="none"></path><path d="M414.43 392.15H431.35C470.61 392.15 502.43 360.33 502.43 321.07 502.43 281.81 470.61 250 431.35 250H414.99L414.43 392.15Z" fill="#3c2c5b" opacity="1" stroke-width="4" stroke="none"></path><path d="M414.43 392.15C453.68 392.15 485.5 360.33 485.5 321.07 485.5 281.82 453.68 250 414.43 250 375.17 250 343.36 281.82 343.36 321.07 343.36 360.33 375.17 392.15 414.43 392.15Z" fill="#3c2c5b" opacity="1" stroke-width="4" stroke="none"></path><path d="M414.43 392.15H431.35C457.52 392.15 481.55 377.76 493.96 354.75H416.91L414.43 392.15Z" fill="#0b0b0b" opacity="0.3" stroke-width="4" stroke="none"></path><path d="M397.51 392.15H414.43C453.69 392.15 485.5 360.33 485.5 321.07 485.5 281.81 453.69 250 414.43 250H398.07L397.51 392.15Z" fill="#ffc930" opacity="1" stroke-width="4" stroke="none"></path><path d="M397.51 392.15H414.43C449.35 392.15 479.07 366.82 484.6 332.36H401.12L397.51 392.15Z" fill="#000000" opacity="0.3" stroke-width="4" stroke="none"></path><path d="M397.51 392.15C436.76 392.15 468.58 360.33 468.58 321.07 468.58 281.82 436.76 250 397.51 250 358.25 250 326.43 281.82 326.43 321.07 326.43 360.33 358.25 392.15 397.51 392.15Z" fill="#ffc930" opacity="1" stroke-width="4" stroke="none"></path><path d="M397.51 392.15C436.77 392.15 468.58 360.33 468.58 321.07 468.58 281.81 436.77 250 397.51 250" stroke="#000000" stroke-width="4" stroke-linecap="round" stroke-linejoin="round" opacity="1" fill="none"></path><path d="M397.51 357.18C417.45 357.18 433.61 341.01 433.61 321.07 433.61 301.13 417.45 284.97 397.51 284.97 377.57 284.97 361.41 301.13 361.41 321.07 361.41 341.01 377.57 357.18 397.51 357.18Z" fill="#61ccff" opacity="1" stroke-width="4" stroke="none"></path><path d="M397.51 332.36C403.74 332.36 408.79 327.31 408.79 321.07 408.79 314.84 403.74 309.79 397.51 309.79 391.27 309.79 386.23 314.84 386.23 321.07 386.23 327.31 391.27 332.36 397.51 332.36Z" fill="#f5e6bc" opacity="1" stroke-width="4" stroke="none"></path></g></svg>