<svg xmlns="http://www.w3.org/2000/svg" height="1200" width="1600" version="1.1" xmlns:xlink="http://www.w3.org/1999/xlink" xmlns:svgjs="http://svgjs.com/svgjs"><rect fill="#f3ebe9" width="1600" height="1200"></rect><g><path d="M1109.44 243.37L826.62 543.27 641.52 243.37H496.19L515.27 217.74 586.52 187.27H1109.44V243.37Z" fill="#ff4f32" opacity="1" stroke-width="4" stroke="none"></path><path d="M1109.44 243.37H496.19V310.73H1109.44V243.37Z" fill="#f78013" opacity="1" stroke-width="4" stroke="none"></path><path d="M1109.44 310.73H496.19V387.3H1109.44V310.73Z" fill="#ffc930" opacity="1" stroke-width="4" stroke="none"></path><path d="M1109.44 378.11H496.19V445.46H1109.44V378.11Z" fill="#367721" opacity="1" stroke-width="4" stroke="none"></path><path d="M1109.44 443.18H496.19V517.54H1109.44V463.71Z" fill="#61ccff" opacity="1" stroke-width="4" stroke="none"></path><path d="M1109.44 568.72H575.69L514.09 543.13 500.71 515.26H1109.44V568.72Z" fill="#3c2c5b" opacity="1" stroke-width="4" stroke="none"></path><path d="M586.52 187.38H544.5L544.63 356.96 729.35 378.08H542.87L533.67 568.84H575.69L771.37 378.08 586.52 187.38Z" fill="#231f20" opacity="1" stroke-width="4" stroke="none"></path><path d="M491.49 244.1L491.55 507.32 691.98 378.08 491.49 244.1Z" fill="#ffffff" opacity="1" stroke-width="4" stroke="none"></path><path d="M544.59 187.38H507.24L691.98 378.08 496.3 568.84H533.74L729.41 378.08 544.59 187.38Z" fill="#47220a" opacity="1" stroke-width="4" stroke="none"></path><path d="M507.24 187.38H491.49V207.22L656.17 378.08 490.61 539.48V568.84H496.41L692.09 378.08 507.24 187.38Z" fill="#61ccff" opacity="1" stroke-width="4" stroke="none"></path><path d="M621.27 378.08L491.51 505.2 490.56 540.51 657.19 378.08 491.49 207.22V244.1L621.27 378.08Z" fill="#ffa0dc" opacity="1" stroke-width="4" stroke="none"></path></g><g><path d="M725.54 639.89L650.32 1015.22" stroke="#231f20" stroke-width="4" stroke-linecap="round" stroke-linejoin="round" opacity="1" fill="none"></path><path d="M711.81 696.53H544.44" stroke="#231f20" stroke-width="4" stroke-linecap="round" stroke-linejoin="round" opacity="1" fill="none"></path><path d="M694.79 783.93H527.42" stroke="#231f20" stroke-width="4" stroke-linecap="round" stroke-linejoin="round" opacity="1" fill="none"></path><path d="M677.77 871.18H510.39" stroke="#231f20" stroke-width="4" stroke-linecap="round" stroke-linejoin="round" opacity="1" fill="none"></path><path d="M660.75 958.59H493.38" stroke="#231f20" stroke-width="4" stroke-linecap="round" stroke-linejoin="round" opacity="1" fill="none"></path><path d="M556.28 639.89L481.06 1015.22" stroke="#231f20" stroke-width="4" stroke-linecap="round" stroke-linejoin="round" opacity="1" fill="none"></path><path d="M556.28 639.89L631.51 1015.22" stroke="#231f20" stroke-width="4" stroke-linecap="round" stroke-linejoin="round" opacity="1" fill="none"></path><path d="M725.54 639.89L800.77 1015.22" stroke="#231f20" stroke-width="4" stroke-linecap="round" stroke-linejoin="round" opacity="1" fill="none"></path></g><g><path d="M1185.73 1004.43L1215.6 983.67 1219.72 976.81C1220.01 967.9 1220.01 960.65 1219.62 951.64L1217.66 948.89 1142.24 950.07 1141.75 952.42C1142.63 960.16 1143.12 966.53 1138.81 974.26L1138.12 980.24 1161.83 1004.43H1185.73Z" fill="#f9b298" opacity="1" stroke-width="4" stroke="none"></path><path d="M1054.37 1004.43L1091.59 974.75C1092.77 966.13 1093.26 962.71 1094.04 953.99L1087.38 927.64 1020.19 945.47 1015.78 951.74C1014.31 961.33 1012.45 966.92 1007.16 973.58L1005.89 978.28 1029.49 1004.34H1054.47L1054.37 1004.43Z" fill="#f9b298" opacity="1" stroke-width="4" stroke="none"></path><path d="M1009.41 727.92C1011.37 727.82 1013.23 727.13 1014.6 725.86 1015.29 726.05 1015.98 726.15 1016.76 726.15 1022.64 726.15 1025.87 719.98 1026.26 719.1 1030.96 717.92 1034.88 714.69 1036.94 710.38 1043.4 697.55 1049.67 682.27 1058.1 659.35L1058.19 659.15 1001.48 642.11 1000.79 645.05C995.6 666.21 992.57 679.23 995.11 683.15 995.6 683.84 996.29 684.33 997.07 684.52 996.97 686.68 996.09 709.21 996.09 716.16 995.99 718.41 996.68 720.67 998.25 722.43 999.32 723.61 1000.89 724.29 1002.56 724.29 1003.05 724.29 1003.44 724.19 1003.93 724.1 1004.03 724.88 1004.71 727.13 1007.94 727.92 1008.34 727.92 1008.83 727.92 1009.41 727.92Z" fill="#f9b298" opacity="1" stroke-width="4" stroke="none"></path><path d="M1003.93 723.69L1013.63 691.96" stroke="#000000" stroke-width="4" stroke-linecap="round" stroke-linejoin="round" opacity="1" fill="none"></path><path d="M1014.6 725.65L1025.18 694.8" stroke="#000000" stroke-width="4" stroke-linecap="round" stroke-linejoin="round" opacity="1" fill="none"></path><path d="M997.27 684.22C1004.03 683.24 1009.81 668.84 1009.81 668.84 1009.81 668.84 1017.54 667.86 1023.32 663.06" stroke="#000000" stroke-width="4" stroke-linecap="round" stroke-linejoin="round" opacity="1" fill="none"></path><path d="M1166.72 1004.43L1166.63 1004.24C1162.71 988.86 1153.4 978.77 1139 974.26L1138.81 974.17 1138.71 974.26C1135.87 979.75 1130.87 984.74 1123.43 989.45 1116.57 993.76 1112.56 996.5 1109.23 1001.89L1107.17 1005.8C1107.07 1006 1107.17 1006.2 1107.36 1006.2L1166.72 1004.43Z" fill="#8876a4" opacity="1" stroke-width="4" stroke="none"></path><path d="M1216.97 1005.41C1217.46 1005.41 1217.85 1005.02 1217.95 1004.53 1218.83 996.01 1219.52 986.12 1219.72 977.01V976.81H1219.52C1197.87 978.87 1187 995.62 1184.16 1004.14L1184.06 1004.43 1216.97 1005.41Z" fill="#8876a4" opacity="1" stroke-width="4" stroke="none"></path><path d="M1033.8 1004.42V1004.23C1032.82 996.39 1025.09 978.66 1007.16 973.57H1007.06L1006.96 973.67C1003.24 978.76 998.15 983.56 991.39 988.46 984.83 993.16 980.71 996.88 978.26 999.82 977.09 1001.19 976.11 1002.86 975.42 1004.52L975.03 1005.5 1033.8 1004.42Z" fill="#8876a4" opacity="1" stroke-width="4" stroke="none"></path><path d="M1086.8 1004.23C1088.56 995.12 1089.83 987.48 1091.2 977.68L1091.59 974.74H1090.32C1076.12 976.12 1059.66 986.3 1052.71 1004.13L1052.61 1004.42 1086.8 1004.23Z" fill="#8876a4" opacity="1" stroke-width="4" stroke="none"></path><path d="M1103.94 479.41C1080.29 479.41 1061.13 460.24 1061.13 436.61 1061.13 412.96 1080.29 393.8 1103.94 393.8 1127.57 393.8 1146.74 412.96 1146.74 436.61 1146.74 460.24 1127.57 479.41 1103.94 479.41Z" fill="#231f20" opacity="1" stroke-width="4" stroke="none"></path><path d="M1144.19 435.33V435.14C1144.88 421.42 1140.47 396.84 1140.57 384.6 1140.86 357.27 1126.37 339.73 1101.88 337.87 1099.43 337.68 1097.08 337.58 1094.73 337.58 1076.31 337.58 1069.56 334.84 1061.62 347.47 1056.43 354.03 1055.94 364.42 1054.86 374.6 1054.37 379.31 1053.88 384.11 1053 389L1052.81 390.28C1050.85 400.95 1048.89 412.02 1054.96 420.94 1059.96 428.18 1069.85 429.75 1077.29 429.75 1080.43 429.75 1083.56 429.46 1086.7 428.97L1086.6 434.45 1086.8 435.53 1144.19 435.33Z" fill="#f9b298" opacity="1" stroke-width="4" stroke="none"></path><path d="M1103.06 423.19C1097.86 425.54 1092.38 427.69 1086.7 428.77H1086.5V435.04L1088.26 439.35 1103.06 423.19Z" fill="#000000" opacity="0.3" stroke-width="4" stroke="none"></path><path d="M1110.99 401.83L1117.85 396.94" stroke="#000000" stroke-width="4" stroke-linecap="round" stroke-linejoin="round" opacity="1" fill="none"></path><path d="M1086.7 428.97C1090.71 427.69 1092.97 427.01 1098.55 425.15" stroke="#000000" stroke-width="4" stroke-linecap="round" stroke-linejoin="round" opacity="1" fill="none"></path><path d="M1069.95 387.14L1069.16 389.3C1068.77 390.47 1068.97 391.84 1069.85 392.82L1070.05 393.12" stroke="#000000" stroke-width="4" stroke-linecap="round" stroke-linejoin="round" opacity="1" fill="none"></path><path d="M1066.71 403.3C1068.09 404.38 1072.59 404.87 1075.43 401.83" stroke="#000000" stroke-width="4" stroke-linecap="round" stroke-linejoin="round" opacity="1" fill="none"></path><path d="M1081.9 388.12C1080.49 388.12 1079.35 386.98 1079.35 385.57 1079.35 384.16 1080.49 383.03 1081.9 383.03 1083.3 383.03 1084.44 384.16 1084.44 385.57 1084.44 386.98 1083.3 388.12 1081.9 388.12Z" fill="#231f20" opacity="1" stroke-width="4" stroke="none"></path><path d="M1061.62 386.16C1060.21 386.16 1059.07 385.02 1059.07 383.62 1059.07 382.21 1060.21 381.07 1061.62 381.07 1063.02 381.07 1064.17 382.21 1064.17 383.62 1064.17 385.02 1063.02 386.16 1061.62 386.16Z" fill="#231f20" opacity="1" stroke-width="4" stroke="none"></path><path d="M1094.24 951.53V951.33C1098.45 923.71 1096.2 896.58 1094.14 870.52 1091.2 834.48 1088.46 800.39 1101.68 766.5 1106.29 797.16 1114.32 829.68 1122.06 861.12 1129.5 891.29 1137.14 922.54 1141.65 951.43L1141.75 952.31 1219.62 951.63V951.43C1220.99 919.6 1209.72 881.2 1199.73 847.31 1193.46 825.96 1188.08 807.54 1186.61 793.73 1186.61 777.27 1187.29 759.64 1188.08 740.93 1190.43 683.93 1192.78 624.86 1174.85 590.87L1174.76 590.77H1051.04V590.87C1050.65 592.05 1014.8 707.43 1014.31 809.5 1014.21 834.09 1015.09 861.9 1015.88 886.39 1015.98 891 1016.17 895.4 1016.27 899.62 1016.37 905.2 1016.56 910.1 1016.66 914.41 1017.05 929.29 1017.35 938.31 1015.68 951.53V951.73L1094.04 953.98 1094.24 951.53Z" fill="#ff4f32" opacity="1" stroke-width="4" stroke="none"></path><path d="M1094.04 953.98L1094.24 951.33C1098.45 923.71 1096.2 896.58 1094.14 870.52 1091.2 834.48 1088.46 800.39 1101.68 766.5L1094.44 680.99C1094.34 680.79 1089.64 681.57 1087.38 682.75 1082.29 685.49 1081.21 688.43 1080.23 690.98 1075.04 704.89 1066.42 758.96 1071.61 826.84 1075.33 876.4 1075.14 907.55 1074.36 924.98 1073.47 943.89 1071.61 951.14 1071.61 951.24L1071.42 953.19 1094.04 953.98Z" fill="#000000" opacity="0.3" stroke-width="4" stroke="none"></path><path d="M1101.68 766.51C1098.06 734.48 1097.08 707.05 1094.44 681" stroke="#000000" stroke-width="4" stroke-linecap="round" stroke-linejoin="round" opacity="1" fill="none"></path><path d="M1185.63 625.15C1181.71 603.02 1175.93 590.87 1175.93 590.68L1175.83 590.58H1051.14V590.68C1051.14 590.77 1047.12 603.61 1041.84 624.08L1041.74 624.27 1185.63 625.15Z" fill="#9e76dd" opacity="1" stroke-width="4" stroke="none"></path><path d="M1000.79 645.05C1000.79 645.05 1001.48 642.31 1001.77 640.93 1004.12 631.24 1006.67 621.44 1009.12 611.94 1013.23 596.07 1017.15 581.09 1020.09 566.79 1020.58 564.34 1021.27 560.91 1022.05 556.6 1026.55 531.91 1036.06 480.69 1050.94 461.68L1051.04 461.59V461.49C1059.56 451.01 1068.18 444.15 1086.6 440.23V434.45L1144.19 434.45 1143.9 440.82C1145.17 440.92 1146.35 441.11 1147.53 441.21 1184.35 445.81 1223.83 493.42 1244.99 535.73 1252.24 550.23 1257.62 572.66 1248.81 587.94 1243.13 597.84 1232.45 603.32 1216.87 604.4 1215.21 604.5 1213.54 604.59 1211.78 604.59 1184.94 604.59 1159.18 591.08 1159.08 590.98L1051.04 590.88C1050.94 592.74 1043.21 620.95 1034.39 654.65L1000.79 645.05Z" fill="#9e76dd" opacity="1" stroke-width="4" stroke="none"></path><path d="M1047.71 538.09C1047.12 537.89 1046.54 537.79 1045.85 537.79 1036.84 537.79 1034.68 563.26 1032.92 585.69 1032.43 591.96 1031.94 597.84 1031.35 602.64 1028.42 625.85 1021.66 650.34 1021.56 650.63L1021.46 650.83 1034.39 654.65 1051.14 590.69C1037.62 578.64 1047.71 538.09 1047.71 538.09Z" fill="#010101" opacity="0.3" stroke-width="4" stroke="none"></path><path d="M1157.03 625.16C1170.74 711.36 1154.09 745.64 1163.88 814.21 1170.15 858.39 1190.33 897.47 1193.27 951.34" stroke="#000000" stroke-width="4" stroke-linecap="round" stroke-linejoin="round" opacity="1" fill="none"></path><path d="M1051.14 590.77C1036.64 576.28 1047.61 547.48 1048.2 531.02 1048.5 523.48 1048.89 514.18 1049.28 504.87" stroke="#010101" stroke-width="4" stroke-linecap="round" stroke-linejoin="round" opacity="1" fill="none"></path><path d="M1175.44 528.19L1184.35 544.55" stroke="#010101" stroke-width="4" stroke-linecap="round" stroke-linejoin="round" opacity="1" fill="none"></path><path d="M1061.52 346.97C1069.46 334.34 1082.39 328.26 1100.8 328.26 1103.15 328.26 1105.5 328.36 1107.95 328.56 1111.38 328.85 1114.61 329.44 1117.65 330.22 1115.4 325.03 1114.42 319.25 1114.71 313.18 1115.89 294.57 1130.87 279.48 1149.48 278.21 1171.92 276.74 1190.53 295.06 1189.45 317.49 1188.57 335.32 1174.95 350.2 1157.32 352.65 1152.03 353.34 1147.04 352.95 1142.33 351.67 1145.17 358.24 1146.74 366.07 1146.64 374.89 1156.73 371.26 1167.31 369.3 1177.99 369.21 1193.76 369.21 1206.79 373.81 1216.87 382.92 1237.84 401.82 1245.48 431.11 1235.88 455.99 1228.04 476.46 1210.7 488.12 1188.37 488.12 1167.21 488.12 1150.27 481.66 1137.73 469.12 1118.73 449.53 1118.04 423.08 1118.24 415.44V415.34L1118.34 415.24C1121.67 412.7 1124.7 409.66 1127.35 406.33 1131.07 401.43 1134.69 394.18 1131.17 387.13 1129.01 382.92 1125.78 380.77 1121.47 380.77 1112.95 380.77 1102.86 389.19 1102.86 389.19 1097.57 384.68 1097.47 375.87 1097.77 372.15 1097.77 371.56 1097.18 371.07 1096.59 371.26 1094.14 372.15 1091.4 372.64 1088.75 372.73 1085.03 372.73 1082.09 371.46 1080.13 369.11 1077.69 366.07 1077 361.47 1078.08 355.3 1078.18 354.71 1077.59 354.22 1077 354.32 1074.65 354.91 1072.3 355.2 1069.85 355.2 1061.62 355.2 1059.56 351.18 1059.47 350.99V350.89C1060.05 349.52 1060.74 348.25 1061.52 346.97Z" fill="#231f20" opacity="1" stroke-width="4" stroke="none"></path><path d="M1142.43 351.77C1137.73 341 1129.21 333.55 1117.65 330.22" stroke="#231f20" stroke-width="4" stroke-linecap="round" stroke-linejoin="round" opacity="1" fill="none"></path><path d="M1159.08 590.97L1137.53 578.24 1154.58 535.72 1186.02 543.36 1156.14 512.41C1155.36 511.92 1154.48 511.73 1153.5 511.73 1151.83 511.73 1149.58 512.51 1147.92 516.43 1147.13 518.78 1146.55 521.13 1146.06 523.48 1142.73 538.57 1134.79 573.83 1105.8 590.68L1105.21 591.07 1159.08 590.97Z" fill="#010101" opacity="0.3" stroke-width="4" stroke="none"></path><path d="M1155.46 535.82L1155.26 535.72C1149.48 532.59 1144.1 529.06 1138.91 525.05 1126.96 515.74 1120.1 512.9 1120.1 512.9 1120.1 512.9 1119.41 512.61 1119.31 512.61 1103.06 504.77 1087.48 514.27 1117.45 522.11 1115.49 521.62 1093.75 516.62 1079.45 516.62 1074.84 516.62 1071.51 517.11 1069.36 518.19 1068.18 518.68 1067.3 519.66 1066.91 520.84 1066.52 522.4 1066.62 524.07 1067.3 525.54 1065.15 526.32 1063.48 528.08 1062.7 530.34 1062.21 532.3 1062.5 534.26 1063.58 536.02 1062.21 537.1 1061.43 538.66 1061.43 540.33 1061.43 542.09 1062.11 544.54 1065.64 546.6 1070.73 549.44 1088.26 553.94 1093.06 555.12 1088.07 555.51 1069.75 557.18 1067.89 561.29 1067.6 562.07 1067.79 562.86 1068.38 563.45 1069.95 565.31 1076.51 565.8 1084.25 566.48 1092.28 567.07 1101.39 567.85 1107.17 570.2 1116.96 574.12 1127.25 576.96 1137.63 578.63H1137.83L1155.46 535.82Z" fill="#f9b298" opacity="1" stroke-width="4" stroke="none"></path><path d="M1137.83 578.24L1159.08 590.77" stroke="#010101" stroke-width="4" stroke-linecap="round" stroke-linejoin="round" opacity="1" fill="none"></path><path d="M1155.17 535.92L1200.52 549.34" stroke="#010101" stroke-width="4" stroke-linecap="round" stroke-linejoin="round" opacity="1" fill="none"></path><path d="M1067.79 525.64C1091.69 527.2 1115.69 532.98 1115.69 532.98" stroke="#000000" stroke-width="4" stroke-linecap="round" stroke-linejoin="round" opacity="1" fill="none"></path><path d="M1063.97 535.92C1080.04 537.78 1110.89 544.44 1110.89 544.44" stroke="#000000" stroke-width="4" stroke-linecap="round" stroke-linejoin="round" opacity="1" fill="none"></path><path d="M1093.06 555.13L1107.07 558.07" stroke="#000000" stroke-width="4" stroke-linecap="round" stroke-linejoin="round" opacity="1" fill="none"></path><path d="M1215.9 1018.64C1215.99 1018.64 1215.99 1018.64 1215.99 1018.54 1216.09 1017.75 1217.07 1012.66 1217.95 1004.24V1004.04H1108.15L1108.05 1004.14C1103.06 1012.17 1103.84 1018.54 1103.84 1018.64H1215.9V1018.64Z" fill="#9e76dd" opacity="1" stroke-width="4" stroke="none"></path><path d="M1083.46 1018.64C1083.66 1018.64 1083.76 1018.54 1083.76 1018.34 1084.05 1017.17 1085.23 1012.17 1086.7 1004.24V1004.04H975.82 975.52C970.53 1012.07 971.51 1018.54 971.51 1018.64V1018.83L1083.46 1018.64Z" fill="#9e76dd" opacity="1" stroke-width="4" stroke="none"></path><path d="M1146.74 374.99L1146.25 391.54" stroke="#231f20" stroke-width="4" stroke-linecap="round" stroke-linejoin="round" opacity="1" fill="none"></path></g><g><path d="M406.39 975.62C407.63 960.43 409.33 950 412.85 937.3 412.85 937.19 412.96 937.07 413.08 937.07 415.23 936.39 434.96 930.84 456.05 930.95 462.51 931.06 486.66 936.51 489.95 937.19 490.18 937.19 490.29 937.41 490.18 937.64 487.46 944.56 485.98 948.86 484.28 953.4 484.28 953.51 484.17 953.63 483.94 953.63L465.91 953.85C459.34 953.85 456.73 959.98 454.69 966.44L450.38 978.57C450.38 978.69 450.15 978.8 450.04 978.8L406.39 975.62Z" fill="#ea883e" opacity="1" stroke-width="4" stroke="none"></path><path d="M511.61 975.17C509.91 963.95 508.66 951.81 507.98 937.64 507.98 937.53 507.98 937.41 508.09 937.3 510.02 936.17 528.84 925.73 547.33 925.62 565.47 925.62 583.38 935.71 585.2 936.85 585.31 936.85 585.31 936.96 585.31 937.07 585.42 944.1 586.1 948.18 586.56 952.49 586.56 952.61 586.56 952.61 586.44 952.72L564.9 982.77C564.79 982.88 564.67 982.88 564.56 982.88 561.27 982.2 517.28 975.74 514 975.7 511.72 975.4 511.61 975.28 512.02 977.68Z" fill="#ea883e" opacity="1" stroke-width="4" stroke="none"></path><path d="M473.51 606.78C473.4 606.78 473.4 606.66 473.4 606.55V556.32C473.4 540.9 482.01 520.26 503.56 507.9 510.25 504.05 510.25 500.87 519.55 500.87 543.02 500.87 556.17 508.47 560.71 519.81 561.39 521.62 562.18 524.23 563.31 528.43 565.24 535.8 567.4 546.11 567.85 550.99 567.85 551.1 567.96 551.22 568.08 551.22 576.35 555.07 576.58 559.61 568.53 563.92V564.48C570.57 587.16 563.54 603.38 536.55 599.86 536.33 599.86 536.21 599.97 536.21 600.2 536.21 601.45 536.21 605.64 536.21 606.44 536.21 606.55 536.21 606.66 536.1 606.66 534.63 607.8 520.23 618 505.49 617.89 490.52 617.89 475.21 607.68 473.51 606.78Z" fill="#ea883e" opacity="1" stroke-width="4" stroke="none"></path><path d="M520.11 593.62C528.16 598.16 534.51 599.63 535.99 599.75 536.1 599.75 536.21 599.86 536.21 600.09 536.21 601.56 536.21 608.25 536.21 610.63 536.21 610.97 535.87 611.09 535.65 610.86L519.66 594.19C519.43 593.85 519.77 593.51 520.11 593.62Z" fill="#1d140d" opacity="0.2" stroke-width="4" stroke="none"></path><path d="M584.97 907.93C584.86 893.99 584.74 878.22 584.06 859.74 581.68 795.11 565.47 740.69 564.33 736.83 564.33 736.72 564.22 736.6 563.99 736.6 544.15 736.26 472.26 736.6 453.67 736.49 453.55 736.49 453.44 736.6 453.33 736.72 433.94 783.09 441.88 828.45 434.28 872.78 430.08 894.89 418.75 915.87 412.96 936.85 412.96 937.07 413.08 937.3 413.3 937.3 419.31 937.3 485.87 937.53 490.07 937.53 490.18 937.53 490.29 937.41 490.41 937.3 496.19 922.22 502.42 905.1 506.39 888.88 506.51 888.54 506.96 888.54 507.07 889 507.53 895.69 507.75 902.72 507.53 910.54 507.3 920.97 507.64 931.18 507.98 937.3 507.98 937.53 508.09 937.64 508.32 937.64 513.54 937.64 579.98 937.19 585.08 937.19 585.31 937.19 585.42 937.07 585.42 936.85 585.2 928.23 585.08 919.04 584.97 907.93Z" fill="#9e76dd" opacity="1" stroke-width="4" stroke="none"></path><path d="M506.96 887.41L505.03 871.88 495.96 832.87 485.53 796.93C485.53 796.93 486.66 790.01 492.22 789.22 493.01 789.1 493.81 789.1 494.49 789.1 498.12 789.1 501.18 790.46 503.67 793.07 513.08 802.94 513.08 828.56 512.29 847.04 511.16 876.86 513.2 869.95 506.96 887.41Z" fill="#1b0045" opacity="0.2" stroke-width="4" stroke="none"></path><path d="M485.64 797.83C492.45 826.07 503.56 851.92 506.73 888.54" stroke="#1b0045" stroke-width="4" stroke-linecap="round" stroke-linejoin="round" opacity="1" fill="none"></path><path d="M623.86 644.99C623.75 644.87 623.75 644.76 623.75 644.53 638.26 617.32 655.38 585.46 653.91 609.84 653.91 610.29 654.48 610.52 654.7 610.07 659.24 602.58 668.2 590.68 673.98 590.68 675.23 590.68 676.13 591.24 676.93 592.15 677.04 592.38 677.27 592.38 677.49 592.26 681.01 590.34 684.98 589.77 686 596.8 686 597.03 686.11 597.14 686.34 597.14 690.53 598.16 691.1 602.58 689.4 607.68 689.4 607.8 689.4 607.91 689.4 608.02 696.32 616.19 676.93 656.33 670.35 673.45 670.35 673.56 670.24 673.68 670.01 673.68 658.56 673.33 626.81 647.26 623.86 644.99Z" fill="#ea883e" opacity="1" stroke-width="4" stroke="none"></path><path d="M426.91 747.72C417.38 747.72 410.13 744.09 405.25 736.83 385.41 707.35 425.21 646.69 439.95 632.29 457.07 615.62 470.34 613.47 473.06 613.24 473.17 613.24 473.28 613.13 473.28 612.9V606.44C473.28 606.21 473.4 606.1 473.62 606.1H535.87C536.1 606.1 536.21 606.21 536.21 606.44V612.9C536.21 613.01 536.33 613.24 536.44 613.24 540.18 613.69 565.13 617.32 579.75 633.65 593.7 649.41 606.97 665.4 609.69 668.69 609.8 668.91 610.14 668.8 610.26 668.69 611.73 665.96 617.85 654.4 624.32 643.51 624.43 643.4 624.66 643.29 624.77 643.4 628.4 645.78 666.72 671.41 670.01 673.56 670.12 673.68 670.24 673.79 670.12 673.9 660.83 694.77 646.88 721.07 632.03 728.33 604.7 742.5 580.89 720.39 573.52 708.94 573.4 708.71 573.06 708.71 572.95 709.05 571.7 713.02 565.13 733.88 564.33 736.26 564.33 736.38 564.22 736.49 563.99 736.49L460.47 736.94C460.36 736.94 460.36 736.94 460.36 736.94 458.77 737.97 442.44 747.72 426.91 747.72Z" fill="#ff4f32" opacity="1" stroke-width="4" stroke="none"></path><path d="M473.74 589.32C473.51 589.32 473.4 589.2 473.4 588.98 473.28 587.05 473.28 577.98 473.28 569.93 477.11 563.5 477.48 558.47 478.16 556.51 483.75 540.88 490.41 529.78 499.93 510.17 506.62 506.32 510.13 500.76 519.43 500.76 546.19 501.33 558.32 508.92 562.41 525.48 562.41 525.59 562.41 525.59 562.41 525.71 561.73 528.09 550.16 531.03 543.13 529.22 542.45 529.33 540.75 528.09 540.64 528.99 540.64 541.58 532.81 548.61 531.34 549.86 531.22 549.97 531 549.97 530.88 549.86 529.52 548.27 521.25 538.74 510.25 538.74 502.88 538.63 495.51 545.66 495.62 553.26 494.94 561.2 504.81 574.12 507.07 576.28 507.19 576.39 507.19 576.62 507.07 576.73 498.91 587.73 476.01 589.09 473.74 589.32Z" fill="#231f20" opacity="1" stroke-width="4" stroke="none"></path><path d="M406.39 975.96C406.39 975.85 406.5 975.62 406.73 975.62L447.55 975.51C447.66 975.51 447.77 975.4 447.89 975.28L451.17 964.51C453.21 957.82 459.34 953.4 466.25 953.4L483.83 953.74C484.06 953.74 484.17 953.97 484.06 954.31 475.21 978.46 478.39 980.05 492.56 995.24 495.39 998.3 497.89 1000.68 499.48 1004.08 499.59 1004.31 499.48 1004.54 499.25 1004.54 494.71 1005.22 455.37 1011.34 453.78 1011.57H453.67L405.82 1004.42C405.71 1004.42 405.59 1004.31 405.59 1004.08 405.48 1001.7 405.59 985.94 406.39 975.96Z" fill="#231f20" opacity="1" stroke-width="4" stroke="none"></path><path d="M405.82 1018.71C405.71 1017.35 405.48 1012.02 405.48 1004.54 405.48 1004.31 405.59 1004.2 405.82 1004.2 411.49 1004.2 494.6 1003.86 499.25 1003.86 499.36 1003.86 499.48 1003.97 499.59 1004.08 501.52 1007.6 502.08 1012.13 501.97 1018.48 501.97 1018.71 501.86 1018.82 501.63 1018.82 494.37 1018.82 411.83 1019.05 406.16 1019.05 405.93 1019.05 405.82 1018.94 405.82 1018.71Z" fill="#000000" stroke-linejoin="round" opacity="1" stroke-width="4" stroke="none"></path><path d="M517.16 1003.74C515.12 995.58 513.08 985.83 511.61 975.74 511.61 975.51 511.72 975.4 511.95 975.4 516.03 975.4 553.34 975.4 557.42 975.4 557.64 975.4 557.76 975.17 557.76 975.06L556.4 966.21C555.38 959.64 560.93 953.17 567.62 953.4 567.62 953.4 583.84 952.83 586.22 952.72 586.44 952.72 586.56 952.83 586.56 953.06 587.92 970.52 595.4 978.57 606.17 987.76 618.19 995.58 619.1 1002.27 619.1 1003.63 619.1 1003.74 618.99 1003.97 618.87 1003.97 616.26 1004.42 597.33 1010.21 568.87 1010.43 553.56 1010.55 520.11 1004.54 517.28 1003.97 517.28 1003.97 517.16 1003.86 517.16 1003.74Z" fill="#231f20" opacity="1" stroke-width="4" stroke="none"></path><path d="M521.7 1018.94C520.68 1016.78 518.41 1008.17 517.28 1004.42 517.16 1004.2 517.39 1003.97 517.62 1003.97 524.76 1003.97 614.11 1003.97 618.99 1003.97 619.1 1003.97 619.21 1004.08 619.33 1004.2 621.03 1008.17 621.71 1012.93 622.16 1018.6 622.16 1018.82 622.05 1018.94 621.82 1018.94 614 1018.94 526.92 1019.05 522.04 1019.05 521.93 1019.05 521.81 1018.94 521.7 1018.94Z" fill="#000000" stroke-linejoin="round" opacity="1" stroke-width="4" stroke="none"></path><path d="M537.91 725.83L569.78 703.95C569.89 703.84 570.12 703.84 570.23 704.06L573.06 708.37C573.06 708.48 573.18 708.6 573.06 708.6L564.45 736.04C564.45 736.15 564.33 736.15 564.33 736.15L537.69 755.99C537.46 756.11 537.12 755.99 537.12 755.77L537.69 725.95C537.8 726.06 537.8 725.95 537.91 725.83Z" fill="#231f20" opacity="1" stroke-width="4" stroke="none"></path><path d="M512.18 684.33L542.45 614.49C542.56 614.37 542.68 614.26 542.79 614.26 547.44 615.05 558.21 617.66 568.53 624.24 568.64 624.35 568.76 624.47 568.64 624.58 566.71 629 540.07 690.8 538.03 695.45 537.91 695.56 537.8 695.67 537.57 695.56L512.29 684.56C512.18 684.79 512.18 684.56 512.18 684.33Z" fill="#231f20" opacity="1" stroke-width="4" stroke="none"></path><path d="M440.74 631.5C448.57 624.01 458.09 617.55 465.12 615.28 465.23 615.28 465.46 615.28 465.46 615.51 467.39 620.27 490.97 679 492.9 683.77 493.01 683.88 492.9 684.11 492.67 684.22 489.73 685.47 465.8 695.45 466.93 694.99 466.48 693.74 442.22 635.8 440.63 631.95 440.63 631.72 440.74 631.61 440.74 631.5Z" fill="#231f20" opacity="1" stroke-width="4" stroke="none"></path><path d="M554.47 569.02C556.74 571.29 559.23 571.63 561.73 571.06" stroke="#1d140d" stroke-width="4" stroke-linecap="round" stroke-linejoin="round" opacity="1" fill="none"></path><path d="M557.3 554.39C558.87 554.39 560.14 553.12 560.14 551.56 560.14 549.99 558.87 548.72 557.3 548.72 555.74 548.72 554.47 549.99 554.47 551.56 554.47 553.12 555.74 554.39 557.3 554.39Z" fill="#231f20" opacity="1" stroke-width="4" stroke="none"></path><path d="M473.17 556.21C473.17 540.79 473.28 514.71 494.71 502.35 501.4 498.49 510.13 496.34 519.43 496.34 559.23 496.34 562.97 525.25 563.31 528.09 563.31 528.2 563.2 528.31 563.09 528.43L526.46 545.43C526.35 545.43 526.24 545.43 526.12 545.43 521.93 541.81 511.72 536.93 504.47 540.33 495.28 544.64 495.39 553.6 496.3 558.81 496.3 558.93 496.3 559.04 496.07 559.15L473.62 569.7C473.4 569.81 473.17 569.7 473.17 569.36V556.21Z" fill="#9e76dd" opacity="1" stroke-width="4" stroke="none"></path><path d="M610.03 669.03L601.98 659.28" stroke="#000000" stroke-width="4" stroke-linecap="round" stroke-linejoin="round" opacity="1" fill="none"></path><path d="M454.69 775.16C442.33 775.38 433.03 767.11 435.64 754.86L448.79 685.47C450.72 674.7 460.58 668.91 471.36 668.91L505.83 666.3H528.96C539.84 666.3 548.23 674.58 548.46 685.47L549.48 754.86C549.59 760.76 547.1 766.77 542.79 771.19 538.37 775.72 532.36 778.22 526.35 778.22H502.31L462.29 775.61 454.69 775.16Z" fill="#000000" opacity="1" stroke-width="4" stroke="none"></path><path d="M430.65 778.33C418.29 778.56 408.99 767.11 411.6 754.86L424.75 685.47C426.57 674.7 436.43 666.3 447.32 666.3H504.92C515.8 666.3 524.19 674.58 524.42 685.47L525.44 754.86C525.56 760.76 523.06 766.77 518.75 771.19 514.33 775.72 508.32 778.22 502.31 778.22L430.65 778.33Z" fill="#231f20" opacity="1" stroke-width="4" stroke="none"></path><path d="M591.77 972.34L580.89 978.91" stroke="#000000" stroke-width="4" stroke-linecap="round" stroke-linejoin="round" opacity="1" fill="none"></path><path d="M597.9 980.05L589.85 989.23" stroke="#000000" stroke-width="4" stroke-linecap="round" stroke-linejoin="round" opacity="1" fill="none"></path><path d="M478.95 978.01L467.84 982.09" stroke="#000000" stroke-width="4" stroke-linecap="round" stroke-linejoin="round" opacity="1" fill="none"></path><path d="M483.26 986.06L475.1 992.18" stroke="#000000" stroke-width="4" stroke-linecap="round" stroke-linejoin="round" opacity="1" fill="none"></path><path d="M573.18 708.37L566.94 698.73" stroke="#000000" stroke-width="4" stroke-linecap="round" stroke-linejoin="round" opacity="1" fill="none"></path><path d="M419.31 715.06H524.53" stroke="#000000" stroke-width="4" stroke-linecap="round" stroke-linejoin="round" opacity="1" fill="none"></path><path d="M472.04 514.48C458.88 514.48 448.11 503.71 448.11 490.56 448.11 477.4 458.88 466.63 472.04 466.63 485.19 466.63 495.96 477.4 495.96 490.56 495.96 503.71 485.19 514.48 472.04 514.48Z" fill="#9e76dd" opacity="1" stroke-width="4" stroke="none"></path><path d="M677.27 592.38C677.27 592.38 664.11 611.43 656.97 623.22" stroke="#1d140d" stroke-width="4" stroke-linecap="round" stroke-linejoin="round" opacity="1" fill="none"></path><path d="M685.88 597.25L666.95 629.79" stroke="#1d140d" stroke-width="4" stroke-linecap="round" stroke-linejoin="round" opacity="1" fill="none"></path><path d="M689.17 608.14L675.57 635.46" stroke="#1d140d" stroke-width="4" stroke-linecap="round" stroke-linejoin="round" opacity="1" fill="none"></path><path d="M512.52 557.23L518.41 563.69" stroke="#1d140d" stroke-width="4" stroke-linecap="round" stroke-linejoin="round" opacity="1" fill="none"></path><path d="M536.21 599.86C529.75 599.18 518.07 592.49 518.07 592.49" stroke="#1d140d" stroke-width="4" stroke-linecap="round" stroke-linejoin="round" opacity="1" fill="none"></path></g></svg>